<svg id="Layer_1" data-name="Layer 1" xmlns="http://www.w3.org/2000/svg" xmlns:xlink="http://www.w3.org/1999/xlink" viewBox="0 0 326 337"><defs><linearGradient id="linear-gradient" x1="33.85" y1="167.03" x2="296.09" y2="167.03" gradientUnits="userSpaceOnUse"><stop offset="0" stop-color="#153bff"/><stop offset="0.51" stop-color="#90c"/><stop offset="0.61" stop-color="#af0baa"/><stop offset="0.88" stop-color="#e82855"/><stop offset="1" stop-color="#f33"/></linearGradient><linearGradient id="linear-gradient-2" x1="31.4" y1="237.88" x2="296.44" y2="237.88" xlink:href="#linear-gradient"/></defs><path d="M53.62,90.32C45,115.38,52.72,136,64.51,149.57c8.07,9.29,18.44,14.84,29.69,18.48,14.06,4.56,17.79,32.6,5.7,60.52C89.85,251.76,77,263.87,57,276.1A3.76,3.76,0,0,0,60,282.93c32.33-8.57,58.1-30,74.32-49.8,29.59-36,50.73-82.49,37.92-125.63C147.84,25.37,69.31,44.66,53.62,90.32Z" fill="url(#linear-gradient)"/><circle cx="225.61" cy="237.88" r="49.59" fill="url(#linear-gradient-2)"/></svg>