<svg xmlns="http://www.w3.org/2000/svg" width="220" height="51.4" xmlns:v="https://vecta.io/nano"><path d="M0 15.3v-5h20.4v5h-7.3v20.8H7.3V15.3zm27.6-5h5.2L44 36.1h-6l-2.4-5.8H24.7l-2.4 5.8h-5.8l11.1-25.8zm6.1 15.3l-3.5-9-3.6 9h7.1zm11.6-15.3h11.8c3.3 0 5.8.9 7.5 2.6 1.5 1.5 2.2 3.4 2.2 5.9v.1c0 2.1-.5 3.8-1.5 5.1s-2.4 2.3-4 2.9l6.3 9.2H61l-5.6-8.4h0H51v8.4h-5.7V10.3zm11.4 12.5c1.4 0 2.5-.3 3.3-1a3.69 3.69 0 0 0 1.1-2.7V19c0-1.2-.4-2.1-1.2-2.8-.8-.6-1.9-.9-3.3-.9H51v7.4c0 .1 5.7.1 5.7.1zm12.7-12.5H75v25.9h-5.6zm40.4 26.3c-1.9 0-3.7-.3-5.3-1s-3-1.6-4.2-2.8-2.1-2.6-2.8-4.2-1-3.4-1-5.2v-.1c0-1.8.3-3.6 1-5.2s1.6-3 2.8-4.2 2.6-2.2 4.2-2.9c1.7-.7 3.5-1 5.5-1 1.2 0 2.3.1 3.3.3s1.9.5 2.7.8 1.6.8 2.3 1.3 1.3 1 1.9 1.6l-3.6 4.2c-1-.9-2-1.6-3.1-2.1-1-.5-2.2-.8-3.5-.8-1.1 0-2.1.2-3 .6s-1.7 1-2.4 1.7-1.2 1.6-1.6 2.5a8.15 8.15 0 0 0-.6 3.1v.1a8.15 8.15 0 0 0 .6 3.1c.4 1 .9 1.8 1.5 2.6.7.7 1.4 1.3 2.4 1.7.9.4 1.9.7 3 .7 1.5 0 2.7-.3 3.8-.8a19.09 19.09 0 0 0 3-2.2l3.6 3.7c-.7.7-1.4 1.4-2.1 1.9-.7.6-1.5 1.1-2.4 1.4-.8.4-1.8.7-2.8.9-.8.2-1.9.3-3.2.3m12.5-26.3h5.7v10.3h10.5V10.3h5.7v25.8h-5.7V25.6H128v10.5h-5.7zm24.5 0h19.4v5h-13.8v5.3h12.5v5h-12.5v5.5h13.8v5h-19.4zm33.9 26.3c-1.9 0-3.7-.3-5.3-1s-3-1.6-4.2-2.8-2.1-2.6-2.8-4.2-1-3.4-1-5.2v-.1c0-1.8.3-3.6 1-5.2s1.6-3 2.8-4.2 2.6-2.2 4.2-2.9c1.7-.7 3.5-1 5.5-1 1.2 0 2.3.1 3.3.3s1.9.5 2.7.8 1.6.8 2.3 1.3 1.3 1 1.9 1.6l-3.6 4.2c-1-.9-2-1.6-3.1-2.1-1-.5-2.2-.8-3.5-.8-1.1 0-2.1.2-3 .6s-1.7 1-2.4 1.7-1.2 1.6-1.6 2.5a8.15 8.15 0 0 0-.6 3.1v.1a8.15 8.15 0 0 0 .6 3.1 8.69 8.69 0 0 0 1.6 2.6 5.86 5.86 0 0 0 2.4 1.7c.9.4 2 .7 3.1.7 1.5 0 2.7-.3 3.7-.8 1-.6 2-1.3 3.1-2.2l3.6 3.7c-.7.7-1.4 1.4-2.1 1.9-.7.6-1.5 1.1-2.4 1.4-.8.4-1.8.7-2.8.9s-2.1.3-3.4.3m-103.1-.5h5.7V25.6h10.6v-5H83.3v-5.3h11.9v-5H77.6z" fill="#0056a4"/><path d="M213.1 0l-13.4 23.4V10.3h-6.4v25.8h6L220 0z" fill="#f98600"/><path d="M205.5 29.9l4.6 6.2h7.3l-8.7-11.9zM12.6 49c0 .8-.3 1.4-.8 1.8-.6.4-1.3.6-2.3.6s-1.8-.1-2.4-.4v-1c.4.1.7.3 1.2.4.4.1.8.1 1.3.1.7 0 1.2-.1 1.5-.4s.5-.6.5-1.1c0-.3-.1-.6-.2-.7s-.3-.4-.6-.5-.7-.3-1.3-.6c-.8-.3-1.4-.6-1.7-1s-.5-.9-.5-1.6.3-1.2.7-1.6c.5-.4 1.2-.6 2-.6s1.7.1 2.4.5l-.3.9c-.7-.3-1.4-.4-2.1-.4-.6 0-1 .1-1.3.3s-.4.6-.4 1c0 .3.1.6.2.7s.3.5.5.6c.3.1.7.3 1.2.5.9.3 1.6.7 1.9 1 .3.5.5.9.5 1.5zm11.6 2.4h-4.9v-8.7h4.8v.9h-3.8v2.8H24v.9h-3.6v3.2h3.8v.9zm7 0v-8.7h1v8.7h-1zm11.1 0h-1v-7.8h-2.8v-.9H45v.9h-2.8c.1 0 .1 7.8.1 7.8zm23.8-8.8v5.6c0 1-.3 1.8-.9 2.3-.6.6-1.4.8-2.5.8s-1.8-.3-2.4-.8c-.6-.6-.8-1.4-.8-2.4v-5.6h1v5.7c0 .7.2 1.3.6 1.7s1 .6 1.7.6 1.3-.2 1.7-.6.6-1 .6-1.7v-5.7l1 .1h0zm-5-1.5c0-.2 0-.4.1-.4.1-.1.2-.1.4-.1.1 0 .3 0 .4.1s.1.3.1.4c0 .2 0 .3-.1.4s-.2.1-.4.1c-.1 0-.3 0-.4-.1s-.1-.3-.1-.4zm2.2 0c0-.2 0-.4.1-.4.1-.1.2-.1.4-.1.1 0 .3 0 .4.1s.1.3.1.4c0 .2 0 .3-.1.4s-.2.1-.4.1c-.1 0-.3 0-.4-.1 0-.1-.1-.3-.1-.4zm10.1 1.5h2.5c1.1 0 2 .2 2.5.5s.8.9.8 1.6c0 .5-.1.9-.4 1.3-.3.3-.7.6-1.3.7v.1c1.3.2 2 .9 2 2.1 0 .8-.3 1.4-.8 1.8s-1.3.7-2.2.7h-3l-.1-8.8h0zm1 3.8h1.7c.7 0 1.2-.1 1.6-.3.3-.2.5-.6.5-1.1s-.2-.8-.5-1.1-.9-.3-1.7-.3h-1.5l-.1 2.8h0zm0 .8v3.3h1.8c.7 0 1.2-.1 1.6-.4s.5-.7.5-1.3-.2-.9-.6-1.2-.9-.4-1.7-.4h-1.6zm16.8 4.2h-4.8v-8.7h4.8v.9h-3.8v2.8H91v.9h-3.6v3.2h3.8v.9zm8-3.7v3.6h-1v-8.7h2.4c1.1 0 1.8.2 2.4.6.5.4.8 1 .8 1.8 0 1.1-.6 1.9-1.7 2.3l2.4 3.9h-1.2l-2.1-3.6h-2zm0-.8h1.4c.7 0 1.3-.1 1.6-.4s.5-.7.5-1.3-.2-1-.5-1.3-.9-.4-1.6-.4h-1.3l-.1 3.4h0zm24.8 4.5h-5.7v-.8l2.3-2.3 1.4-1.5c.2-.3.4-.6.5-.9s.2-.6.2-.9c0-.5-.1-.8-.4-1.1s-.7-.4-1.2-.4c-.4 0-.7.1-1 .2s-.7.3-1.1.7l-.5-.7c.8-.7 1.7-1 2.6-1 .8 0 1.4.2 1.9.6s.7 1 .7 1.7c0 .6-.1 1.1-.5 1.6-.3.6-.9 1.2-1.7 2l-1.9 1.8h0 4.5l-.1 1h0zm12-4.4c0 1.5-.2 2.6-.7 3.4s-1.2 1.1-2.2 1.1c-.9 0-1.7-.4-2.1-1.1-.5-.8-.7-1.9-.7-3.3 0-1.5.2-2.6.7-3.4.5-.7 1.2-1.1 2.1-1.1s1.7.4 2.1 1.1c.6.7.8 1.8.8 3.3zm-4.7 0c0 1.3.1 2.2.4 2.8s.8.8 1.4.8 1.1-.3 1.4-.9.4-1.5.4-2.8-.1-2.2-.4-2.7c-.3-.6-.8-.9-1.4-.9s-1.1.3-1.4.8c-.3.7-.4 1.6-.4 2.9zm18.4 4.4c-.4 0-.7 0-.9-.1v-.8c.3.1.6.1.9.1.4 0 .7-.1.9-.4.2-.2.3-.6.3-1v-6.5h1V49c0 .7-.2 1.3-.6 1.7-.3.5-.9.7-1.6.7zm15.1 0l-1.1-2.8h-3.5l-1.1 2.8h-1l3.4-8.8h.8l3.4 8.8h-.9zm-1.5-3.7l-1-2.7c-.1-.3-.3-.8-.4-1.3-.1.4-.2.8-.4 1.3l-1 2.7h2.8zm15.3 3.7h-1v-4.1H173v4.1h-1v-8.7h1v3.7h4.6v-3.7h1v8.7zm8.4-3.7v3.6h-1v-8.7h2.4c1.1 0 1.8.2 2.4.6.5.4.8 1 .8 1.8 0 1.1-.6 1.9-1.7 2.3l2.4 3.9H191l-2.1-3.6H187zm0-.8h1.4c.7 0 1.3-.1 1.6-.4s.5-.7.5-1.3-.2-1-.5-1.3-.9-.4-1.6-.4h-1.3l-.1 3.4h0zm16.4 4.5h-4.8v-8.7h4.8v.9h-3.8v2.8h3.6v.9h-3.6v3.2h3.8v.9zm13.8 0H216l-4.8-7.3h0c.1.8.1 1.6.1 2.4v5h-.9v-8.7h1.1l4.7 7.3h0v-1-1.3-5h1v8.6h0z" fill="#0056a4"/></svg>